# xmcd CD database file
# Copyright (C) 1993-1998 Ti Kan
# 
# Track frame offsets:
#     182
#     3777
#     14850
#     28082
#     38725
#     47065
#     57160
#     72680
#     87985
#     102587
#     114470
#     128802
#     141687
#     150382
#     163425
#     179562
#     189262
#     199547
#     208097
#     217265
#     227792
#     238517
# 
# Disc length: 3311 seconds
# 
# Revision: 1
# Processed by: cddbd v1.4b41PL1 Copyright (c) Steve Scherf et al.
# Submitted via: DiscPlay 4.0.4
# 
DISCID=4b0ced16
DTITLE=Bob Wills and his Texas Playboys - Your Friendly King of Western Swin
DYEAR=1900
DGENRE=
TTITLE0=Texas Playboy Theme
TTITLE1=Lone Star Rag
TTITLE2=Cotton Patch Blues
TTITLE3=Jumpin' at the Woodside
TTITLE4=Cotton Eyed Joe
TTITLE5=Take Me Back To Tulsa
TTITLE6=Corrine, Corrina
TTITLE7=San Antonio Rose
TTITLE8=I'm a Ding Dong Daddy
TTITLE9=Please Don't Talk About Me When I'm Gone
TTITLE10=Take The 'A' Train
TTITLE11=New Spanish Two-Step
TTITLE12=Home in San Antone
TTITLE13=Across The Valley From The Alamo
TTITLE14=My Brown-Eyed Texas Rose
TTITLE15=My Window Faces South
TTITLE16=Sweet Georgia Brown
TTITLE17=Oklahoma Hills
TTITLE18=Keep Knockin' But You Can't Come In
TTITLE19=Tea For Two
TTITLE20=Big Beaver
TTITLE21=Get Along Home Cindy
EXTD=
EXTT0=
EXTT1=
EXTT2=
EXTT3=
EXTT4=
EXTT5=
EXTT6=
EXTT7=
EXTT8=
EXTT9=
EXTT10=
EXTT11=
EXTT12=
EXTT13=
EXTT14=
EXTT15=
EXTT16=
EXTT17=
EXTT18=
EXTT19=
EXTT20=
EXTT21=
PLAYORDER=
